<?xml version="1.0" encoding="utf-8"?>
<!-- Generator: Adobe Illustrator 24.3.0, SVG Export Plug-In . SVG Version: 6.00 Build 0)  -->
<svg version="1.1" id="Layer_2_1_" xmlns="http://www.w3.org/2000/svg" xmlns:xlink="http://www.w3.org/1999/xlink" x="0px" y="0px"
	 viewBox="0 0 485.1 133.9" style="enable-background:new 0 0 485.1 133.9;" xml:space="preserve">
<style type="text/css">
	.st0{fill:#FFFFFF;}
	.st1{fill:url(#SVGID_3_);}
	.st2{fill:none;}
</style>
<g>
	<g>
		<defs>
			<circle id="SVGID_1_" cx="240.6" cy="70" r="88"/>
		</defs>
		<clipPath id="SVGID_2_">
			<use xlink:href="#SVGID_1_"  style="overflow:visible;"/>
		</clipPath>
	</g>
</g>
<g>
	<path class="st0" d="M171.4,48.9h8.6l4.2,13l4.2-13h8.7l-6.9,18.9l4.1,10.8l10.2-29.8h10.2L199,89.5h-8.1l-6.6-15.9l-6.5,15.9h-8.2
		l-15.8-40.6h10.2l10.2,29.8l4-10.8L171.4,48.9z"/>
	<path class="st0" d="M221.9,48.9h10.1l14,40.6h-9.6l-2.8-9.1h-13.4l-2.8,9.1h-9.6L221.9,48.9z M231.7,73.9L227,58.3l-4.7,15.6
		H231.7z"/>
	<path class="st0" d="M276.7,57.1h-12.4v32.4h-9.4V57.1h-12.4v-8.2h34.2V57.1z"/>
	<path class="st0" d="M277.5,68.8c0-2.5,0.5-4.9,1.4-7.3c0.9-2.4,2.3-4.5,4-6.5c1.8-1.9,3.9-3.5,6.4-4.7c2.5-1.2,5.4-1.7,8.6-1.7
		c3.8,0,7.1,0.8,9.9,2.5c2.8,1.6,4.9,3.8,6.3,6.4l-7.2,5c-0.6-1.4-1.4-2.6-2.4-3.4c-1-0.8-2.1-1.4-3.3-1.7c-1.2-0.3-2.4-0.5-3.5-0.5
		c-1.8,0-3.4,0.4-4.7,1.1c-1.3,0.7-2.4,1.7-3.3,2.8c-0.9,1.2-1.5,2.5-1.9,3.9c-0.4,1.5-0.6,2.9-0.6,4.3c0,1.6,0.2,3.1,0.7,4.6
		c0.5,1.5,1.2,2.8,2.1,3.9c0.9,1.1,2.1,2.1,3.4,2.7c1.3,0.7,2.8,1,4.4,1c1.1,0,2.3-0.2,3.5-0.6c1.2-0.4,2.3-1,3.3-1.8
		c1-0.8,1.8-1.9,2.3-3.2l7.7,4.5c-0.8,2-2.1,3.7-3.9,5.1c-1.8,1.4-3.9,2.5-6.2,3.2c-2.3,0.7-4.6,1.1-6.8,1.1c-2.9,0-5.6-0.6-8.1-1.8
		c-2.5-1.2-4.6-2.8-6.4-4.8c-1.8-2-3.1-4.3-4.1-6.8C278,73.9,277.5,71.4,277.5,68.8z"/>
	<path class="st0" d="M353.6,48.9v40.6h-9.4V72.9H328v16.7h-9.4V48.9h9.4v15.7h16.2V48.9H353.6z"/>
	<path class="st0" d="M359.1,89.5V48.9h15.2c4.5,0,8.2,0.9,11.2,2.7c3,1.8,5.3,4.3,6.8,7.3c1.5,3.1,2.3,6.5,2.3,10.2
		c0,4.1-0.8,7.7-2.5,10.8c-1.7,3.1-4,5.4-7.1,7.1c-3,1.7-6.6,2.5-10.7,2.5H359.1z M384.9,69.1c0-2.4-0.4-4.5-1.3-6.3
		c-0.8-1.8-2.1-3.2-3.7-4.2c-1.6-1-3.5-1.5-5.8-1.5h-5.8v24.2h5.8c2.3,0,4.2-0.5,5.8-1.6c1.6-1,2.8-2.5,3.6-4.3
		C384.5,73.5,384.9,71.4,384.9,69.1z"/>
	<path class="st0" d="M418.3,89.8c-3.1,0-5.8-0.6-8.3-1.7c-2.5-1.2-4.6-2.7-6.4-4.7c-1.8-2-3.1-4.2-4.1-6.6c-1-2.5-1.4-5-1.4-7.6
		c0-2.7,0.5-5.3,1.5-7.7c1-2.4,2.4-4.6,4.2-6.6c1.8-1.9,4-3.4,6.4-4.5c2.5-1.1,5.2-1.7,8.1-1.7c3,0,5.8,0.6,8.2,1.7
		c2.5,1.2,4.6,2.7,6.4,4.7c1.8,2,3.1,4.2,4.1,6.7c1,2.5,1.4,5,1.4,7.5c0,2.7-0.5,5.3-1.5,7.7c-1,2.4-2.4,4.6-4.2,6.6
		c-1.8,1.9-4,3.5-6.4,4.6C423.9,89.2,421.2,89.8,418.3,89.8z M407.7,69.2c0,1.6,0.2,3.1,0.7,4.5c0.5,1.5,1.1,2.8,2,3.9
		c0.9,1.1,2,2.1,3.3,2.7c1.3,0.7,2.9,1,4.6,1c1.8,0,3.4-0.4,4.7-1.1c1.3-0.7,2.4-1.6,3.3-2.8c0.9-1.2,1.5-2.5,2-4
		c0.4-1.5,0.7-3,0.7-4.5c0-1.6-0.2-3.1-0.7-4.5c-0.5-1.4-1.1-2.8-2.1-3.9c-0.9-1.2-2-2.1-3.4-2.7c-1.3-0.6-2.8-1-4.5-1
		c-1.8,0-3.3,0.3-4.7,1c-1.3,0.7-2.4,1.6-3.3,2.8c-0.9,1.2-1.6,2.5-2,3.9C407.9,66.2,407.7,67.7,407.7,69.2z"/>
	<path class="st0" d="M464.2,68.3v6.8h7.9v1.3c-1.3,1.6-2.8,2.8-4.3,3.6c-1.8,1-3.6,1.5-5.6,1.5c-1.6,0-3.1-0.3-4.4-0.9
		c-1.3-0.6-2.5-1.5-3.4-2.5c-1-1.1-1.7-2.4-2.2-3.9c-0.5-1.5-0.8-3.1-0.8-4.9c0-1.7,0.2-3.3,0.7-4.8c0.5-1.5,1.2-2.8,2.1-3.9
		c0.9-1.1,2-2,3.3-2.6c1.3-0.6,2.7-0.9,4.2-0.9c2,0,3.9,0.5,5.6,1.5c1.7,1,3.1,2.4,4,4.2l7-5.3c-1.4-2.7-3.5-4.9-6.4-6.5
		c-2.9-1.6-6.2-2.4-9.9-2.4c-2.9,0-5.5,0.5-8,1.6c-2.5,1-4.6,2.5-6.4,4.4c-1.8,1.9-3.3,4-4.3,6.5c-1,2.4-1.5,5.1-1.5,7.9
		c0,3.1,0.5,6,1.5,8.5c1,2.5,2.4,4.7,4.2,6.6c1.8,1.9,3.9,3.3,6.2,4.3c2.4,1,4.9,1.5,7.6,1.5c4,0,7.6-1.4,10.7-4.3v4h7.8V68.3H464.2
		z"/>
	<linearGradient id="SVGID_3_" gradientUnits="userSpaceOnUse" x1="60.4564" y1="129.0365" x2="60.4564" y2="8.8855">
		<stop  offset="0" style="stop-color:#192153"/>
		<stop  offset="0.5345" style="stop-color:#3846A9"/>
		<stop  offset="1" style="stop-color:#5468F8"/>
	</linearGradient>
	<path class="st1" d="M110.8,25.6L62.2,9.2c-0.6-0.2-1.2-0.3-1.7-0.3c-0.1,0-0.1,0-0.2,0c-0.5,0-1,0.1-1.5,0.3L10.2,25.6
		c-2.5,0.9-4.2,3.2-4.2,5.9v49.5c0,22.2,16.3,30.7,32,39l10.2,5.8c3.7,2.1,7.9,3.2,12.1,3.2c0.1,0,0.1,0,0.2,0
		c4.3,0,8.6-1.1,12.3-3.2L83,120c15.7-8.2,32-16.8,32-39V31.6C115,28.9,113.3,26.5,110.8,25.6z"/>
	<g>
		<path class="st2" d="M109.9,28.3L61.3,11.8c-0.3-0.1-0.6-0.1-0.9-0.1s-0.6,0-0.9,0.1L11.1,28.3c-1.4,0.5-2.4,1.8-2.4,3.3v49.5
			c0,9.3,2.9,16.5,9.3,22.7c5.7,5.7,13.6,9.8,21.2,13.8l0.1,0l10.2,5.8c3.3,1.9,7.1,2.9,10.9,2.9s7.6-1,10.9-2.9l10.3-5.8
			c7.6-4,15.5-8.1,21.3-13.8c6.3-6.2,9.3-13.4,9.3-22.7V31.6C112.2,30.1,111.3,28.7,109.9,28.3z"/>
		<path class="st0" d="M111.6,23L63.1,6.5c-1.7-0.6-3.6-0.6-5.3,0L9.3,23c-3.7,1.2-6.1,4.7-6.1,8.6v49.5c0,10.7,3.6,19.5,10.9,26.7
			c6.3,6.2,14.6,10.5,22.5,14.7l10.2,5.7c4.2,2.3,8.9,3.6,13.7,3.6c4.8,0,9.5-1.2,13.7-3.6l10.2-5.7c8-4.2,16.2-8.5,22.5-14.7
			c7.4-7.2,10.9-16,10.9-26.7V31.6C117.8,27.7,115.3,24.2,111.6,23z M112.2,31.6v49.5c0,9.3-2.9,16.5-9.3,22.7
			c-5.8,5.7-13.6,9.8-21.3,13.8l-10.3,5.8c-3.3,1.9-7.1,2.9-10.9,2.9s-7.6-1-10.9-2.9l-10.2-5.8l-0.1,0c-7.6-4-15.5-8.1-21.2-13.8
			c-6.3-6.2-9.3-13.4-9.3-22.7V31.6c0-1.5,0.9-2.8,2.4-3.3l48.5-16.5c0.3-0.1,0.6-0.1,0.9-0.1s0.6,0,0.9,0.1l48.5,16.5
			C111.3,28.7,112.2,30.1,112.2,31.6z"/>
	</g>
	<path class="st0" d="M92.4,35L92.4,35c-0.2-1.1-0.9-1.9-1.9-2.2c-1.1-0.3-2.2,0-3,0.9l-27,38.9c0,0,0,0.1-0.1,0.1L49,56.2l0,0
		l-3.3-4.7h0L45.4,51l-2.6-3.7l0,0l-4.1-5.9l0,0l0,0L33.5,34c-0.7-1-1.9-1.4-3.1-1c-0.8,0.3-1.5,0.9-1.8,1.7l0,0.1v37.5L34.1,61
		L34,44.4l9.3,13.3L52.6,71l0,0l3.7,5.3c1.1,1.4,2.6,2.2,4.3,2.1c1.6,0,3.1-0.8,4.2-2.1l3.9-5.6l0,0l6.4-9.2l1.4-2.1l3.4-4.9l0,0
		L87,44.1L87,61l5.4,11.2V35z"/>
	<path class="st0" d="M92.4,81.4c0-0.6-0.1-1.1-0.3-1.6l0,0L83,60.6l-1.3-2.7L78,63l8.8,18.3l0,0l-18.8,23.9
		c-1.3,1.6-3.2,2.5-5.3,2.5h-4.6c-2.1,0-4-0.9-5.3-2.5L34.2,81.4L43,63.1L39.3,58L29,79.7l-0.1,0.2l0,0c-0.2,0.5-0.3,1-0.3,1.6
		c0,0.6,0.1,1.2,0.3,1.6l0,0l0.1,0.3c0.2,0.4,0.4,0.8,0.6,1.1l1.1,1.4l0,0l17.9,22.8l0,0.1c2.3,2.9,5.8,4.6,9.5,4.6h4.6
		c3.7,0,7.2-1.7,9.5-4.6l17.9-23l0,0l1.1-1.4c0.3-0.3,0.5-0.7,0.7-1.1l0.1-0.2l0,0C92.3,82.6,92.4,82,92.4,81.4z"/>
	<path class="st0" d="M67.2,49.6h-6.6h-6.8c-1.1,0-2.8,0.2-4.8,0.7l3.4,4.9c0.5-0.1,1-0.1,1.4-0.1h6.6h6.8c0.4,0,0.8,0,1.2,0.1
		l3.4-4.9C69.9,49.8,68.2,49.6,67.2,49.6z"/>
	<g>
		<path class="st0" d="M408.7,108.4V97.1h4.7c0.5,0,1,0.1,1.4,0.3c0.4,0.2,0.8,0.5,1.1,0.8c0.3,0.3,0.6,0.7,0.7,1.2
			c0.2,0.4,0.3,0.9,0.3,1.3c0,0.6-0.1,1.2-0.4,1.8c-0.3,0.6-0.7,1-1.2,1.4c-0.5,0.3-1.1,0.5-1.8,0.5h-3v3.9H408.7z M410.5,102.9h2.9
			c0.3,0,0.6-0.1,0.9-0.3c0.3-0.2,0.5-0.4,0.6-0.8c0.1-0.3,0.2-0.7,0.2-1.1c0-0.4-0.1-0.8-0.3-1.1c-0.2-0.3-0.4-0.6-0.7-0.7
			c-0.3-0.2-0.6-0.3-0.9-0.3h-2.8V102.9z"/>
		<path class="st0" d="M424.3,101.6c-0.7,0-1.3,0.2-1.8,0.5c-0.5,0.3-0.9,0.7-1.1,1.3v5.1h-1.7v-8.2h1.6v1.8c0.3-0.6,0.7-1,1.1-1.4
			c0.5-0.3,1-0.5,1.5-0.6c0.1,0,0.2,0,0.3,0c0.1,0,0.1,0,0.2,0V101.6z"/>
		<path class="st0" d="M430.3,108.5c-0.7,0-1.2-0.1-1.8-0.3c-0.5-0.2-1-0.5-1.3-0.9c-0.4-0.4-0.7-0.9-0.9-1.4
			c-0.2-0.5-0.3-1.1-0.3-1.6c0-0.6,0.1-1.1,0.3-1.6c0.2-0.5,0.5-1,0.9-1.4c0.4-0.4,0.8-0.7,1.3-0.9c0.5-0.2,1.1-0.3,1.8-0.3
			c0.6,0,1.2,0.1,1.8,0.3c0.5,0.2,1,0.5,1.4,0.9c0.4,0.4,0.7,0.8,0.9,1.4c0.2,0.5,0.3,1.1,0.3,1.6c0,0.6-0.1,1.1-0.3,1.6
			c-0.2,0.5-0.5,1-0.9,1.4c-0.4,0.4-0.8,0.7-1.4,0.9C431.5,108.4,431,108.5,430.3,108.5z M427.8,104.3c0,0.5,0.1,1,0.3,1.4
			c0.2,0.4,0.5,0.7,0.9,1c0.4,0.2,0.8,0.4,1.3,0.4c0.5,0,0.9-0.1,1.2-0.4c0.4-0.2,0.7-0.6,0.9-1c0.2-0.4,0.3-0.9,0.3-1.4
			c0-0.5-0.1-1-0.3-1.4c-0.2-0.4-0.5-0.7-0.9-1c-0.4-0.2-0.8-0.4-1.2-0.4c-0.5,0-0.9,0.1-1.3,0.4c-0.4,0.3-0.7,0.6-0.9,1
			C427.9,103.3,427.8,103.7,427.8,104.3z"/>
		<path class="st0" d="M441.8,108c-0.1,0.1-0.3,0.2-0.6,0.2c-0.2,0.1-0.5,0.2-0.8,0.2c-0.3,0.1-0.6,0.1-0.9,0.1
			c-0.4,0-0.7-0.1-1-0.2c-0.3-0.1-0.6-0.3-0.7-0.6c-0.2-0.3-0.3-0.6-0.3-1.1v-5.2h-1.1v-1.3h1.1v-2.7h1.7v2.7h1.8v1.3h-1.8v4.6
			c0,0.3,0.1,0.5,0.3,0.6c0.2,0.1,0.4,0.2,0.6,0.2s0.5,0,0.7-0.1c0.2-0.1,0.4-0.2,0.5-0.2L441.8,108z"/>
		<path class="st0" d="M447.8,108.5c-0.7,0-1.2-0.1-1.8-0.3c-0.5-0.2-1-0.5-1.3-0.9c-0.4-0.4-0.7-0.9-0.9-1.4
			c-0.2-0.5-0.3-1.1-0.3-1.6c0-0.6,0.1-1.1,0.3-1.6c0.2-0.5,0.5-1,0.9-1.4c0.4-0.4,0.8-0.7,1.4-0.9c0.5-0.2,1.1-0.3,1.8-0.3
			c0.6,0,1.2,0.1,1.8,0.3c0.5,0.2,1,0.5,1.4,0.9c0.4,0.4,0.7,0.8,0.9,1.4c0.2,0.5,0.3,1.1,0.3,1.6c0,0.6-0.1,1.1-0.3,1.6
			c-0.2,0.5-0.5,1-0.9,1.4c-0.4,0.4-0.8,0.7-1.4,0.9C449.1,108.4,448.5,108.5,447.8,108.5z M445.4,104.3c0,0.5,0.1,1,0.3,1.4
			c0.2,0.4,0.5,0.7,0.9,1c0.4,0.2,0.8,0.4,1.3,0.4c0.5,0,0.9-0.1,1.2-0.4c0.4-0.2,0.7-0.6,0.9-1c0.2-0.4,0.3-0.9,0.3-1.4
			c0-0.5-0.1-1-0.3-1.4c-0.2-0.4-0.5-0.7-0.9-1c-0.4-0.2-0.8-0.4-1.2-0.4c-0.5,0-0.9,0.1-1.3,0.4c-0.4,0.3-0.7,0.6-0.9,1
			C445.5,103.3,445.4,103.7,445.4,104.3z"/>
		<path class="st0" d="M458.6,108.5c-0.6,0-1.2-0.1-1.8-0.3c-0.5-0.2-1-0.5-1.4-0.9c-0.4-0.4-0.7-0.9-0.9-1.4
			c-0.2-0.5-0.3-1.1-0.3-1.6c0-0.8,0.2-1.5,0.5-2.1c0.4-0.6,0.9-1.2,1.5-1.5c0.6-0.4,1.4-0.6,2.3-0.6c0.8,0,1.6,0.2,2.2,0.6
			c0.6,0.4,1.1,0.9,1.4,1.5l-1.7,0.5c-0.2-0.3-0.5-0.6-0.8-0.8c-0.3-0.2-0.7-0.3-1.1-0.3c-0.5,0-0.9,0.1-1.3,0.4
			c-0.4,0.2-0.7,0.6-0.9,1c-0.2,0.4-0.3,0.9-0.3,1.4c0,0.5,0.1,1,0.3,1.4c0.2,0.4,0.5,0.8,0.9,1c0.4,0.2,0.8,0.4,1.3,0.4
			c0.3,0,0.6-0.1,0.8-0.2c0.3-0.1,0.5-0.2,0.7-0.4c0.2-0.2,0.3-0.4,0.4-0.6l1.7,0.5c-0.2,0.4-0.4,0.8-0.8,1.1
			c-0.4,0.3-0.8,0.6-1.3,0.8C459.8,108.4,459.2,108.5,458.6,108.5z"/>
		<path class="st0" d="M468.6,108.5c-0.7,0-1.2-0.1-1.8-0.3c-0.5-0.2-1-0.5-1.3-0.9c-0.4-0.4-0.7-0.9-0.9-1.4
			c-0.2-0.5-0.3-1.1-0.3-1.6c0-0.6,0.1-1.1,0.3-1.6c0.2-0.5,0.5-1,0.9-1.4c0.4-0.4,0.8-0.7,1.4-0.9c0.5-0.2,1.1-0.3,1.8-0.3
			c0.6,0,1.2,0.1,1.8,0.3c0.5,0.2,1,0.5,1.4,0.9c0.4,0.4,0.7,0.8,0.9,1.4c0.2,0.5,0.3,1.1,0.3,1.6c0,0.6-0.1,1.1-0.3,1.6
			c-0.2,0.5-0.5,1-0.9,1.4c-0.4,0.4-0.8,0.7-1.4,0.9C469.8,108.4,469.2,108.5,468.6,108.5z M466.1,104.3c0,0.5,0.1,1,0.3,1.4
			c0.2,0.4,0.5,0.7,0.9,1c0.4,0.2,0.8,0.4,1.3,0.4c0.5,0,0.9-0.1,1.2-0.4c0.4-0.2,0.7-0.6,0.9-1c0.2-0.4,0.3-0.9,0.3-1.4
			c0-0.5-0.1-1-0.3-1.4c-0.2-0.4-0.5-0.7-0.9-1c-0.4-0.2-0.8-0.4-1.2-0.4c-0.5,0-0.9,0.1-1.3,0.4c-0.4,0.3-0.7,0.6-0.9,1
			C466.2,103.3,466.1,103.7,466.1,104.3z"/>
		<path class="st0" d="M475.6,96.8h1.7v9.2c0,0.4,0.1,0.7,0.2,0.8c0.1,0.1,0.3,0.2,0.5,0.2c0.2,0,0.4,0,0.6-0.1
			c0.2,0,0.3-0.1,0.5-0.2l0.3,1.4c-0.3,0.1-0.6,0.2-0.9,0.3c-0.3,0.1-0.7,0.1-0.9,0.1c-0.6,0-1.1-0.2-1.4-0.5
			c-0.3-0.3-0.5-0.8-0.5-1.4V96.8z"/>
	</g>
</g>
</svg>
