<svg width="182" height="18" viewBox="0 0 182 18" fill="none" xmlns="http://www.w3.org/2000/svg">
<g clip-path="url(#clip0_238_1624)">
<path d="M147.412 7.87752H145.951L146.368 2.72279L143.257 7.87752H141.88L146.576 0.124634H148.059L147.579 5.34173L150.73 0.124634H152.109L147.412 7.87752Z" fill="white"/>
<path d="M158.788 1.41332H155.26L154.071 3.36713H157.368L156.576 4.65581H153.277L151.336 7.87752H149.958L154.655 0.124634H159.56L158.788 1.41332Z" fill="white"/>
<path d="M166.198 1.41332H164.069L160.145 7.87752H158.767L162.691 1.41332H160.562L161.356 0.124634H166.991L166.198 1.41332Z" fill="white"/>
<path d="M141.796 17.9375H140.418L142.36 14.7367H139.5L137.559 17.9375H136.181L140.9 10.1847H142.276L140.294 13.448H143.153L145.137 10.1847H146.515L141.796 17.9375Z" fill="white"/>
<path d="M148.623 17.9375H143.696L148.393 10.1847H153.32L152.526 11.4734H148.977L147.787 13.4272H151.086L150.292 14.7159H146.995L145.846 16.6281H149.395L148.623 17.9375Z" fill="white"/>
<path d="M158.934 13.1155C158.746 13.4065 158.517 13.6766 158.225 13.9053C158.12 13.9883 157.932 14.1131 157.681 14.2586C157.431 14.4041 157.244 14.5288 157.097 14.5911C156.93 14.6743 156.784 14.7367 156.639 14.7782L156.283 17.9375H154.781L155.176 14.8821H153.674L151.816 17.9375H150.438L155.156 10.1847H158.829C159.185 10.1847 159.435 10.2886 159.582 10.4757C159.623 10.538 159.686 10.642 159.749 10.8082C159.811 10.9745 159.853 11.0992 159.853 11.1824C159.873 11.411 159.79 11.6812 159.602 11.9722L158.934 13.1155ZM157.557 13.0946L158.225 11.9722C158.245 11.9307 158.267 11.8891 158.267 11.8891C158.267 11.6397 158.225 11.4942 158.1 11.4734H155.72L154.468 13.5727H156.763C156.826 13.5727 156.93 13.5311 157.097 13.4272C157.264 13.3233 157.39 13.2401 157.515 13.1362C157.536 13.1362 157.557 13.1155 157.557 13.0946Z" fill="white"/>
<path d="M165.113 16.0877C164.946 16.3787 164.716 16.6281 164.466 16.8359C164.278 16.9815 164.027 17.1477 163.693 17.3555C163.359 17.5635 163.109 17.7089 162.942 17.7713C162.587 17.9168 162.274 17.9999 161.982 17.9999H159.999C159.706 17.9999 159.478 17.9168 159.331 17.7713C159.248 17.7089 159.163 17.5635 159.081 17.3555C158.996 17.1477 158.955 16.9815 158.935 16.8359C158.913 16.6281 158.996 16.3787 159.164 16.0877L161.627 12.0346C161.794 11.7436 162.024 11.4941 162.295 11.2863C162.462 11.1616 162.712 10.9953 163.068 10.7667C163.401 10.5588 163.673 10.4133 163.819 10.351C164.173 10.2055 164.487 10.1223 164.779 10.1223H166.762C167.054 10.1223 167.284 10.2055 167.431 10.351C167.513 10.4133 167.596 10.5588 167.659 10.7667C167.743 10.9745 167.785 11.1408 167.806 11.2863C167.826 11.4941 167.743 11.7436 167.576 12.0346L165.113 16.0877ZM162.963 12.0761L160.542 16.0877C160.52 16.1085 160.52 16.1292 160.52 16.1292C160.542 16.3787 160.624 16.5657 160.75 16.6905C160.771 16.6905 160.792 16.7112 160.813 16.7112H162.692C162.712 16.7112 162.734 16.7112 162.775 16.6905C163.046 16.5866 163.359 16.3995 163.693 16.1292L163.735 16.0877L166.157 12.0761C166.178 12.0346 166.178 12.0137 166.178 12.0137C166.157 11.7436 166.073 11.5565 165.948 11.4526C165.927 11.4526 165.907 11.4318 165.885 11.4318H164.006C163.965 11.4318 163.945 11.4318 163.923 11.4526C163.652 11.5565 163.339 11.7643 163.005 12.0137L162.963 12.0761Z" fill="white"/>
<path d="M170.665 17.9375H165.74L170.435 10.1847H175.362L174.568 11.4734H171.021L169.83 13.4272H173.129L172.335 14.7159H169.037L167.889 16.6281H171.438L170.665 17.9375Z" fill="white"/>
<path d="M179.411 16.0877C179.224 16.3995 179.015 16.6281 178.764 16.8359C178.597 16.9606 178.347 17.1269 178.013 17.3555C177.679 17.5635 177.429 17.7089 177.24 17.7713C176.865 17.9168 176.552 17.9999 176.281 17.9999H174.006C173.441 17.9999 173.107 17.6465 173.003 16.9191C172.982 16.8567 173.003 16.7112 173.003 16.5242L174.568 16.0877C174.59 16.3371 174.673 16.5242 174.777 16.6905C174.798 16.6905 174.82 16.7112 174.861 16.7112H177.01L177.095 16.6905C177.22 16.6488 177.407 16.5449 177.637 16.3995C177.867 16.2539 178.013 16.15 178.034 16.1085L178.493 15.3394C178.577 15.2147 178.556 15.1316 178.473 15.1108L175.654 14.1546C175.382 14.0715 175.237 13.8844 175.215 13.6143C175.195 13.344 175.278 13.053 175.487 12.7413L175.905 12.0346C176.092 11.7228 176.301 11.4941 176.552 11.2863C176.719 11.1616 176.969 10.9953 177.303 10.7875C177.637 10.5796 177.909 10.4341 178.076 10.351C178.451 10.2055 178.764 10.1223 179.035 10.1223H180.977C181.54 10.1223 181.874 10.4757 181.979 11.2032C182 11.3279 181.979 11.4734 181.959 11.6604L180.413 12.0346C180.392 11.7436 180.309 11.5565 180.205 11.4318C180.205 11.4318 180.184 11.411 180.142 11.411H178.305L178.221 11.4318C178.076 11.4734 177.909 11.5773 177.679 11.7228C177.449 11.8683 177.324 11.9514 177.303 12.0137L176.906 12.6581C176.823 12.7828 176.823 12.866 176.906 12.8867L179.725 13.8636C179.996 13.9468 180.121 14.1339 180.142 14.4041C180.163 14.6742 180.079 14.9652 179.892 15.277L179.411 16.0877Z" fill="white"/>
<path d="M9.12233 1.62125C9.76941 0.540416 10.5626 0 11.5228 0H34.5468C35.2148 0 35.4652 0.332563 35.2774 1.01848C35.2148 1.22633 35.1312 1.43418 35.006 1.64203L34.0459 3.26328C33.6493 3.9284 33.1273 4.40647 32.4594 4.69746C32.1464 4.82218 31.8749 4.90531 31.6244 4.90531H11.4602C11.0219 4.90531 10.6044 5.17552 10.2495 5.73672C10.1869 5.84065 10.1452 5.94457 10.1243 6.02772C10.0199 6.38106 10.1452 6.54734 10.5 6.54734H29.9337C30.9356 6.54734 31.2905 7.0462 31.0192 8.04388C30.9148 8.39723 30.7895 8.70901 30.6225 8.97922L26.2389 16.3164C25.6545 17.2933 24.8404 17.8546 23.8385 17.9585H0.793622C0.125655 17.9585 -0.124832 17.6258 0.0630339 16.9399C0.125655 16.7321 0.209151 16.5242 0.334395 16.3164L3.25675 11.4319C3.84122 10.455 4.6553 9.89376 5.65726 9.78984H24.3811C24.8195 9.78984 25.237 9.51964 25.5919 8.97922C25.6545 8.87528 25.6963 8.77136 25.7171 8.66743C25.8006 8.33488 25.6963 8.16859 25.3622 8.16859H7.36891C6.3461 8.16859 5.97037 7.66975 6.24172 6.69284C6.32522 6.42263 6.47134 6.11086 6.68007 5.73672L9.12233 1.62125Z" fill="white"/>
<path d="M52.7276 0H47.8431H45.5679H40.6834C39.7023 0.103926 38.8882 0.644342 38.2829 1.64203L37.7819 2.45266C37.6775 2.66051 37.594 2.86836 37.5314 3.07621C37.3435 3.74134 37.594 4.09469 38.262 4.09469H41.1218C41.4557 4.09469 41.5809 4.26097 41.4975 4.59353C41.4765 4.67668 41.414 4.7806 41.3513 4.90531L38.429 9.78984C38.095 10.351 37.6984 10.6212 37.2183 10.6212H34.3586C34.108 10.6212 33.8367 10.6836 33.5028 10.8291C32.8556 11.0993 32.3338 11.5774 31.9372 12.2425L29.495 16.3164C29.3697 16.5242 29.2862 16.7321 29.2235 16.9399C29.0357 17.6051 29.2862 17.9585 29.9541 17.9585H35.6945C35.9241 17.9585 36.1537 17.9168 36.4251 17.8753C36.613 17.9376 36.8217 17.9585 37.0513 17.9585H42.7917C43.4596 17.9585 44.0858 17.6258 44.6912 16.9399C44.8791 16.7321 45.0252 16.5242 45.1504 16.3164L47.4257 12.2425C47.8014 11.5774 47.8222 11.0993 47.4883 10.8291C47.3213 10.7044 47.1335 10.6212 46.883 10.6212H44.0232C43.5431 10.6212 43.4596 10.351 43.7727 9.78984L46.4863 4.90531C46.549 4.7806 46.6325 4.67668 46.6951 4.59353C46.9873 4.26097 47.3004 4.09469 47.6344 4.09469H50.4942C51.1621 4.09469 51.7883 3.76212 52.3937 3.07621C52.5815 2.86836 52.7276 2.66051 52.8738 2.45266L53.3121 1.64203C53.7505 0.644342 53.5834 0.103926 52.7276 0Z" fill="white"/>
<path d="M82.8905 3.24246C82.2225 3.24246 81.9721 2.9099 82.1599 2.26556C82.2225 2.0577 82.306 1.84985 82.4312 1.642C82.5774 1.41336 82.6817 1.18472 82.7444 0.997657C82.9322 0.33253 82.6817 0.020752 81.9929 0.020752H59.4699C58.5306 0.020752 57.7165 0.561167 57.0693 1.66278L48.2814 16.3163C48.1353 16.5449 48.031 16.7737 47.9892 16.9607C47.8013 17.6258 48.0518 17.9377 48.7407 17.9377H69.8025C71.702 17.9377 73.3093 16.8568 74.6244 14.6951L74.6661 14.6327C75.2715 13.6558 76.0646 13.1362 77.0457 13.0531C77.9851 13.0531 78.7991 12.5127 79.4462 11.4111L83.3497 4.8845C83.475 4.65586 83.5794 4.44801 83.6211 4.26094C83.8089 3.63738 83.5584 3.30482 82.8905 3.24246ZM75.8768 8.9584C75.522 9.49881 75.1045 9.76902 74.6661 9.76902H63.6447C63.3107 9.76902 63.2063 9.60274 63.2898 9.27017C63.3107 9.16625 65.2103 5.8614 65.2728 5.75747C65.6277 5.21705 66.0452 4.94685 66.4836 4.94685H77.505C77.839 4.94685 77.9433 5.11313 77.8599 5.4457C77.839 5.54962 75.9394 8.85447 75.8768 8.9584Z" fill="white"/>
<path d="M81.8676 17.9168C80.4899 17.9168 80.0098 17.2517 80.3647 15.9422C80.4689 15.5889 80.6569 15.1523 80.9491 14.6744L88.756 1.64198C89.4031 0.561146 90.1962 -5.55776e-05 91.1565 -5.55776e-05H99.0468C99.7356 -5.55776e-05 99.9862 0.332508 99.7983 0.97685C99.7357 1.1847 99.6522 1.39256 99.5269 1.62119L95.1434 8.95838C95.0182 9.16623 94.9346 9.37408 94.8721 9.58193C94.6841 10.2471 94.9346 10.5796 95.6026 10.5796H99.9027C100.842 10.5796 101.656 10.0392 102.303 8.93759L106.687 1.60041C107.271 0.6235 108.085 0.0623 109.087 -0.041626H111.258C111.926 -0.041626 112.177 0.290937 111.989 0.97685C111.926 1.22627 111.843 1.43413 111.738 1.60041L103.91 14.6327C103.096 15.9838 102.053 16.9191 100.759 17.4803C100.132 17.7506 99.5686 17.8752 99.0885 17.8752H81.8676V17.9168Z" fill="white"/>
<path d="M115.287 1.62125C115.934 0.540416 116.727 0 117.687 0H140.711C141.379 0 141.629 0.332563 141.442 1.01848C141.379 1.22633 141.295 1.43418 141.171 1.64203L140.21 3.26328C139.814 3.9284 139.292 4.40647 138.623 4.69746C138.31 4.82218 138.039 4.90531 137.789 4.90531H117.625C117.186 4.90531 116.769 5.17552 116.414 5.73672C116.351 5.84065 116.31 5.94457 116.289 6.02772C116.184 6.38106 116.31 6.54734 116.664 6.54734H136.098C137.1 6.54734 137.455 7.0462 137.184 8.04388C137.079 8.39723 136.954 8.70901 136.787 8.97922L132.404 16.3164C131.818 17.2933 131.004 17.8546 130.003 17.9585H106.958C106.29 17.9585 106.04 17.6258 106.227 16.9399C106.29 16.7321 106.374 16.5242 106.499 16.3164L109.421 11.4319C110.006 10.455 110.82 9.89376 111.822 9.78984H130.546C130.984 9.78984 131.401 9.51964 131.757 8.97922C131.818 8.87528 131.861 8.77136 131.881 8.66743C131.965 8.33488 131.861 8.16859 131.527 8.16859H113.512C112.49 8.16859 112.114 7.66975 112.385 6.69284C112.469 6.42263 112.615 6.11086 112.824 5.73672L115.287 1.62125Z" fill="white"/>
</g>
<defs>
<clipPath id="clip0_238_1624">
<rect width="182" height="18" fill="white"/>
</clipPath>
</defs>
</svg>
