<?xml version="1.0" encoding="utf-8"?>
<!-- Generator: Adobe Illustrator 24.2.1, SVG Export Plug-In . SVG Version: 6.00 Build 0)  -->
<svg version="1.1" id="Layer_1" xmlns="http://www.w3.org/2000/svg" xmlns:xlink="http://www.w3.org/1999/xlink" x="0px" y="0px"
	 viewBox="0 0 2251 593" style="enable-background:new 0 0 2251 593;" xml:space="preserve">
<style type="text/css">
	.st0{fill:#FFFFFF;}
</style>
<g>
	<g>
		<path class="st0" d="M1870.26,33.05c-0.08,180.94-0.15,361.88-0.23,542.81c-13.92-8.05-27.83-16.09-41.75-24.14V117.29
			l-124.91,54.91l-62.55-35.69C1717.3,102.02,1793.78,67.54,1870.26,33.05z"/>
		<polygon class="st0" points="1877.7,575.87 1918.88,551.73 1918.88,115.92 2045.16,172.88 2107,136.51 1877.7,33.05 		"/>
		<path class="st0" d="M1640.82,158.47c19.44,11.46,38.88,22.92,58.32,34.37c0.04,72.27,0.08,144.55,0.11,216.82
			c36.38,20.94,72.77,41.88,109.15,62.83c0.05,22.6,0.1,45.2,0.14,67.8c-55.91-32.22-111.82-64.44-167.73-96.66V158.47z"/>
		<path class="st0" d="M2107,158.47c-19.46,11.46-38.93,22.92-58.39,34.37c-0.04,72.27-0.08,144.55-0.11,216.82
			c-36.43,20.94-72.86,41.88-109.29,62.83c-0.05,22.6-0.1,45.2-0.14,67.8c55.98-32.22,111.96-64.44,167.94-96.66V158.47z"/>
	</g>
	<g>
		<path class="st0" d="M258.32,225.47v30.23h-61.76v124.17h-30.88V255.7h-61.76v-30.23H258.32z"/>
		<path class="st0" d="M279.85,225.04h108.3c6.52,0.87,12.65,2.83,18.38,5.87c5.73,3.04,10.66,6.92,14.79,11.63
			c4.13,4.71,7.39,9.97,9.79,15.77c2.39,5.8,3.59,11.82,3.59,18.05v2.17v2.17c0,4.21-0.58,8.45-1.74,12.72
			c-1.16,4.28-2.83,8.34-5,12.18c-2.17,3.84-4.75,7.36-7.72,10.55c-2.97,3.19-6.2,5.87-9.68,8.05l24.79,55.67h-34.14l-20.66-46.97
			h-69.37v46.97h-31.31V225.04z M311.16,301.59h69.37c3.19,0,6.2-0.58,9.02-1.74c2.83-1.16,5.33-2.79,7.5-4.89
			c2.17-2.1,3.88-4.53,5.11-7.29c1.23-2.75,1.85-5.8,1.85-9.13c0-3.05-0.65-5.98-1.96-8.81c-1.3-2.83-3.04-5.33-5.22-7.5
			c-2.17-2.17-4.68-3.91-7.5-5.22c-2.83-1.3-5.76-1.96-8.81-1.96h-69.37V301.59z"/>
		<path class="st0" d="M516.44,379.87c-7.54,0-14.61-1.41-21.2-4.24c-6.6-2.83-12.36-6.7-17.29-11.63
			c-4.93-4.93-8.81-10.69-11.63-17.29c-2.83-6.59-4.24-13.66-4.24-21.2V225.04h30.45v100.47c0,3.34,0.61,6.42,1.85,9.24
			c1.23,2.83,2.94,5.29,5.11,7.39c2.17,2.1,4.71,3.73,7.61,4.89c2.9,1.16,6.01,1.74,9.35,1.74h46.1c3.33,0,6.45-0.58,9.35-1.74
			c2.9-1.16,5.44-2.79,7.61-4.89c2.17-2.1,3.88-4.57,5.11-7.39c1.23-2.83,1.85-5.9,1.85-9.24V225.04h30.45v100.47
			c0,7.54-1.41,14.61-4.24,21.2c-2.83,6.6-6.71,12.36-11.63,17.29c-4.93,4.93-10.69,8.81-17.29,11.63
			c-6.6,2.83-13.67,4.24-21.2,4.24H516.44z"/>
		<path class="st0" d="M752.39,286.8c6.23,0,12.18,1.2,17.83,3.59c5.65,2.39,10.58,5.65,14.79,9.79c4.2,4.13,7.57,9.02,10.11,14.68
			c2.53,5.65,3.81,11.82,3.81,18.48c0,6.82-1.27,13.05-3.81,18.7c-2.54,5.65-5.95,10.55-10.22,14.68
			c-4.28,4.13-9.21,7.36-14.79,9.68c-5.58,2.32-11.49,3.48-17.72,3.48h-62.63c-6.52,0-12.61-1.2-18.27-3.59
			c-5.65-2.39-10.58-5.69-14.79-9.89c-4.21-4.2-7.5-9.13-9.89-14.79c-2.39-5.65-3.59-11.74-3.59-18.27h30.88
			c0,4.06,1.59,7.68,4.78,10.87c3.19,3.19,6.81,4.78,10.87,4.78h62.63c1.59,0,3.3-0.36,5.11-1.09c1.81-0.72,3.48-1.77,5-3.15
			c1.52-1.38,2.79-3.04,3.81-5c1.01-1.96,1.52-4.1,1.52-6.41c0-4.64-1.63-8.37-4.89-11.2c-3.26-2.83-6.78-4.24-10.55-4.24h-62.63
			c-6.67,0-12.87-1.23-18.59-3.7c-5.73-2.46-10.66-5.83-14.79-10.11c-4.13-4.27-7.36-9.21-9.68-14.79
			c-2.32-5.58-3.48-11.56-3.48-17.94c0-6.67,1.23-12.83,3.7-18.48c2.46-5.65,5.8-10.55,10-14.68c4.2-4.13,9.13-7.39,14.79-9.79
			c5.65-2.39,11.67-3.59,18.05-3.59h62.63c6.09,0,11.96,1.16,17.61,3.48c5.65,2.32,10.62,5.55,14.9,9.68
			c4.27,4.13,7.68,9.02,10.22,14.68c2.53,5.65,3.81,11.89,3.81,18.7h-31.1c0-2.32-0.47-4.49-1.41-6.52
			c-0.94-2.03-2.17-3.73-3.7-5.11c-1.52-1.38-3.19-2.46-5-3.26c-1.81-0.79-3.59-1.2-5.33-1.2h-62.63c-2.03,0-3.99,0.47-5.87,1.41
			c-1.89,0.94-3.55,2.17-5,3.7c-1.45,1.52-2.61,3.23-3.48,5.11c-0.87,1.89-1.3,3.84-1.3,5.87c0,4.21,1.56,7.83,4.68,10.87
			c3.12,3.04,6.78,4.57,10.98,4.57H752.39z"/>
		<path class="st0" d="M972.03,225.47v30.23h-61.76v124.17h-30.88V255.7h-61.76v-30.23H972.03z"/>
		<path class="st0" d="M1132.29,241.13c4.93,5.08,8.77,10.87,11.53,17.4c2.75,6.52,4.13,13.56,4.13,21.09
			c0,7.39-1.41,14.35-4.24,20.88c-2.83,6.52-6.67,12.25-11.53,17.18c-4.86,4.93-10.59,8.81-17.18,11.64
			c-6.6,2.83-13.67,4.24-21.2,4.24h-69.59v46.32h-30.66v-154.4h100.25c7.54,0,14.57,1.38,21.09,4.13
			C1121.42,232.36,1127.22,236.2,1132.29,241.13z M1110.33,295.93c4.35-4.35,6.52-9.79,6.52-16.31c0-3.48-0.62-6.63-1.85-9.46
			c-1.23-2.83-2.94-5.29-5.11-7.39c-2.17-2.1-4.64-3.73-7.39-4.89c-2.76-1.16-5.65-1.74-8.7-1.74h-69.59v46.32h69.59
			C1100.47,302.46,1105.98,300.28,1110.33,295.93z"/>
		<path class="st0" d="M1219.71,224.82h33.71l61.11,155.05h-33.49l-9.13-22.83h-70.02l-9.35,22.83h-33.49L1219.71,224.82z
			 M1213.84,325.51h45.88l-22.83-58.5L1213.84,325.51z"/>
		<path class="st0" d="M1474.8,241.57c4.93,4.64,8.81,10.19,11.64,16.64c2.83,6.45,4.24,13.59,4.24,21.42v46.32
			c0,7.39-1.45,14.39-4.35,20.99c-2.9,6.6-6.78,12.32-11.63,17.18c-4.86,4.86-10.55,8.7-17.07,11.52
			c-6.52,2.83-13.48,4.24-20.88,4.24h-100.25V225.04h100.25c7.39,0,14.35,1.52,20.88,4.57
			C1464.14,232.65,1469.87,236.64,1474.8,241.57z M1460.01,279.62c0-3.05-0.65-5.98-1.96-8.81c-1.3-2.83-3.01-5.29-5.11-7.39
			c-2.1-2.1-4.57-3.81-7.39-5.11c-2.83-1.3-5.76-1.96-8.81-1.96h-69.37v92.64h69.37c3.19,0,6.2-0.62,9.02-1.85
			c2.83-1.23,5.29-2.94,7.39-5.11c2.1-2.17,3.77-4.64,5-7.39c1.23-2.75,1.85-5.65,1.85-8.7V279.62z"/>
	</g>
</g>
</svg>
