<svg width="21" height="22" viewBox="0 0 21 22" fill="none" xmlns="http://www.w3.org/2000/svg">
<path d="M9.73767 10.7376C9.79668 10.9807 9.82736 11.2357 9.82736 11.4976C9.82736 11.7596 9.79668 12.0122 9.73767 12.2553C9.98078 12.1963 10.2357 12.1656 10.4977 12.1656C10.7597 12.1656 11.0122 12.1963 11.2553 12.2553C11.1963 12.0122 11.1656 11.7596 11.1656 11.4976C11.1656 11.2357 11.1963 10.9807 11.2553 10.7376C11.0122 10.7966 10.7573 10.8273 10.4977 10.8273C10.238 10.8297 9.98314 10.799 9.73767 10.7376Z" fill="white"/>
<path d="M10.5 2C5.25317 2 1 6.25317 1 11.5C1 16.7468 5.25317 21 10.5 21C15.7468 21 20 16.7468 20 11.5C20 6.25317 15.7468 2 10.5 2ZM14.392 14.7241C14.1301 14.7241 13.8775 14.6934 13.6344 14.6344C13.6934 14.8775 13.7241 15.1301 13.7241 15.392C13.7241 17.1717 12.2796 18.6161 10.5 18.6161C8.72037 18.6161 7.2759 17.1717 7.2759 15.392C7.2759 15.1301 7.30658 14.8775 7.36559 14.6344C7.12248 14.6934 6.86758 14.7241 6.60559 14.7241C4.82596 14.7241 3.38149 13.2796 3.38149 11.5C3.38149 9.72037 4.8236 8.2759 6.60559 8.2759C6.86758 8.2759 7.12248 8.30658 7.36559 8.36559C7.30658 8.12248 7.2759 7.86758 7.2759 7.60559C7.2759 5.82596 8.72037 4.38149 10.5 4.38149C12.2796 4.38149 13.7241 5.8236 13.7241 7.60559C13.7241 7.86758 13.6934 8.12248 13.6344 8.36559C13.8775 8.30658 14.1324 8.2759 14.392 8.2759C16.1717 8.2759 17.6161 9.72037 17.6161 11.5C17.6161 13.2796 16.1717 14.7241 14.392 14.7241Z" fill="white"/>
<path opacity="0.5" d="M9.73762 10.7376C9.98072 10.7966 10.2356 10.8273 10.4976 10.8273C10.7596 10.8273 11.0121 10.7966 11.2553 10.7376C11.5385 9.56694 12.459 8.64645 13.6297 8.36322C13.6887 8.12011 13.7194 7.86521 13.7194 7.60322C13.7194 5.82359 12.2749 4.37912 10.4953 4.37912C8.71563 4.37912 7.27588 5.82359 7.27588 7.60558C7.27588 7.86757 7.30656 8.12247 7.36557 8.36558C8.53625 8.64881 9.45675 9.5693 9.73762 10.7376Z" fill="white"/>
<path opacity="0.5" d="M11.2576 12.2576C11.0145 12.1986 10.762 12.1679 10.5 12.1679C10.238 12.1679 9.98308 12.1986 9.73998 12.2576C9.45675 13.4283 8.53625 14.3512 7.36557 14.632C7.30656 14.8751 7.27588 15.13 7.27588 15.3897C7.27588 17.1693 8.72035 18.6138 10.5 18.6138C12.2796 18.6138 13.7241 17.1693 13.7241 15.3897C13.7241 15.1277 13.6934 14.8751 13.6344 14.632C12.4613 14.3512 11.5408 13.4283 11.2576 12.2576Z" fill="white"/>
<path opacity="0.5" d="M14.3922 8.27588C14.1302 8.27588 13.8776 8.30656 13.6345 8.36557C13.3513 9.53625 12.4308 10.4567 11.2601 10.74C11.2011 10.9831 11.1704 11.238 11.1704 11.5C11.1704 11.762 11.2011 12.0145 11.2601 12.2576C12.4331 12.5408 13.3536 13.4613 13.6369 14.6344C13.88 14.6934 14.1325 14.7241 14.3945 14.7241C16.1741 14.7241 17.6186 13.2796 17.6186 11.5C17.6186 9.72035 16.1718 8.27588 14.3922 8.27588Z" fill="white"/>
<path d="M11.2576 10.74C12.4283 10.4568 13.3512 9.53628 13.632 8.3656C12.4637 8.64883 11.5409 9.56933 11.2576 10.74Z" fill="#999999"/>
<path d="M11.2576 12.2576C11.5409 13.4307 12.4614 14.3512 13.6344 14.6344C13.3512 13.4614 12.4283 12.5409 11.2576 12.2576Z" fill="#999999"/>
<path opacity="0.5" d="M9.74006 12.2576C9.79907 12.0145 9.82975 11.7596 9.82975 11.5C9.82975 11.238 9.79907 10.9831 9.74006 10.74C8.57174 10.4568 7.65124 9.53627 7.36801 8.36795C7.1249 8.30894 6.87 8.27826 6.60801 8.27826C4.82838 8.27826 3.38391 9.72273 3.38391 11.5024C3.38391 13.282 4.82366 14.7241 6.60565 14.7241C6.86764 14.7241 7.12255 14.6934 7.36565 14.6344C7.64888 13.4637 8.56938 12.5409 9.74006 12.2576Z" fill="white"/>
<path d="M9.73753 10.7377C9.4543 9.56933 8.5338 8.64883 7.36548 8.3656C7.64871 9.53628 8.5692 10.4568 9.73753 10.7377Z" fill="#333333"/>
<path d="M9.73989 12.2576C8.5692 12.5409 7.64871 13.4614 7.36548 14.632C8.53616 14.3512 9.45666 13.4283 9.73989 12.2576Z" fill="#333333"/>
<path d="M9.74005 10.74C8.57173 10.4591 7.65123 9.53862 7.37036 8.3703C8.5316 8.65353 9.4521 9.57167 9.74005 10.74Z" fill="white"/>
<path d="M7.36316 14.6344C7.64403 13.4661 8.56453 12.5456 9.73285 12.2647C9.45198 13.426 8.53148 14.3464 7.36316 14.6344Z" fill="white"/>
<path d="M11.2576 12.2576C12.426 12.5385 13.3465 13.459 13.6273 14.6273C12.4661 14.3465 11.5456 13.426 11.2576 12.2576Z" fill="white"/>
<path d="M13.6344 8.36322C13.3535 9.53154 12.433 10.452 11.2647 10.7329C11.5456 9.57167 12.4661 8.65353 13.6344 8.36322Z" fill="white"/>
</svg>
