<svg width="26" height="26" viewBox="0 0 26 26" fill="none" xmlns="http://www.w3.org/2000/svg">
<g clip-path="url(#clip0_240_2922)">
<path d="M5.55374 12.3118C5.55374 11.7316 6.02955 11.255 6.60881 11.255H8.38793C8.96718 11.255 9.46368 11.7316 9.46368 12.3325V19.0463C9.67056 18.9842 9.91881 18.922 10.2084 18.8598C10.6015 18.7562 10.8911 18.404 10.8911 17.9895V9.65943C10.8911 9.07922 11.3669 8.5819 11.9669 8.5819H13.746C14.3252 8.5819 14.8217 9.0585 14.8217 9.65943V17.3886C14.8217 17.3886 15.2562 17.2021 15.6906 17.0156C16.0216 16.8706 16.2285 16.5597 16.2285 16.1867V6.96561C16.2285 6.38541 16.7043 5.88809 17.2836 5.88809H19.0627C19.6419 5.88809 20.1177 6.36469 20.1177 6.96561V14.5497C21.6486 13.4308 23.2209 12.0839 24.4621 10.4676C24.8345 9.99097 24.9379 9.36932 24.7311 8.78912C22.4554 2.24108 15.2976 -1.24016 8.76031 1.03923C2.22306 3.31861 -1.25244 10.4883 1.02318 17.0363C1.27143 17.7823 1.60243 18.4868 1.99549 19.1707C2.3058 19.7094 2.88506 20.0202 3.50568 19.9581C3.83668 19.9374 4.25043 19.8959 4.76762 19.8338C5.22274 19.7923 5.55374 19.3986 5.55374 18.9427V12.3118Z" fill="white"/>
<path d="M5.51245 23.0869C11.1188 27.169 18.9593 25.9257 23.0348 20.3102C24.5863 18.1551 25.4345 15.5649 25.4345 12.9125C25.4345 12.6224 25.4138 12.3323 25.3931 12.0422C20.8419 18.9011 12.36 22.113 5.51245 23.0869Z" fill="#FF27D6"/>
</g>
<defs>
<clipPath id="clip0_240_2922">
<rect width="25.1146" height="25.1146" fill="white" transform="translate(0.335938 0.383301)"/>
</clipPath>
</defs>
</svg>
