<svg width="27" height="27" viewBox="0 0 27 27" fill="none" xmlns="http://www.w3.org/2000/svg">
<g clip-path="url(#clip0_239_2789)">
<g clip-path="url(#clip1_239_2789)">
<path d="M12.5627 12.5747C12.6451 12.9139 12.6879 13.2696 12.6879 13.6351C12.6879 14.0006 12.6451 14.353 12.5627 14.6922C12.9019 14.6099 13.2576 14.5671 13.6231 14.5671C13.9887 14.5671 14.3411 14.6099 14.6802 14.6922C14.5979 14.353 14.5551 14.0006 14.5551 13.6351C14.5551 13.2696 14.5979 12.9139 14.6802 12.5747C14.3411 12.657 13.9854 12.6998 13.6231 12.6998C13.2609 12.7031 12.9052 12.6603 12.5627 12.5747Z" fill="#FF27D6"/>
<path d="M13.6265 0.383545C6.30584 0.383545 0.371582 6.31781 0.371582 13.6385C0.371582 20.9592 6.30584 26.8934 13.6265 26.8934C20.9472 26.8934 26.8815 20.9592 26.8815 13.6385C26.8815 6.31781 20.9472 0.383545 13.6265 0.383545ZM19.0569 18.1369C18.6914 18.1369 18.339 18.0941 17.9998 18.0118C18.0822 18.351 18.125 18.7034 18.125 19.0689C18.125 21.5519 16.1096 23.5673 13.6265 23.5673C11.1435 23.5673 9.12808 21.5519 9.12808 19.0689C9.12808 18.7034 9.17089 18.351 9.25322 18.0118C8.91402 18.0941 8.55836 18.1369 8.19282 18.1369C5.70978 18.1369 3.69437 16.1215 3.69437 13.6385C3.69437 11.1554 5.70649 9.14004 8.19282 9.14004C8.55836 9.14004 8.91402 9.18285 9.25322 9.26518C9.17089 8.92598 9.12808 8.57032 9.12808 8.20478C9.12808 5.72175 11.1435 3.70634 13.6265 3.70634C16.1096 3.70634 18.125 5.71845 18.125 8.20478C18.125 8.57032 18.0822 8.92598 17.9998 9.26518C18.339 9.18285 18.6947 9.14004 19.0569 9.14004C21.54 9.14004 23.5554 11.1554 23.5554 13.6385C23.5554 16.1215 21.54 18.1369 19.0569 18.1369Z" fill="#FF27D6"/>
<path opacity="0.5" d="M12.5627 12.5749C12.9019 12.6572 13.2575 12.7 13.6231 12.7C13.9886 12.7 14.341 12.6572 14.6802 12.5749C15.0754 10.9415 16.3597 9.65714 17.9931 9.26197C18.0754 8.92277 18.1182 8.56711 18.1182 8.20157C18.1182 5.71853 16.1028 3.70312 13.6198 3.70312C11.1368 3.70312 9.12793 5.71853 9.12793 8.20486C9.12793 8.5704 9.17074 8.92606 9.25307 9.26526C10.8865 9.66044 12.1708 10.9448 12.5627 12.5749Z" fill="#FF27D6"/>
<path opacity="0.5" d="M14.6835 14.6957C14.3443 14.6134 13.9919 14.5706 13.6264 14.5706C13.2608 14.5706 12.9052 14.6134 12.566 14.6957C12.1708 16.3291 10.8865 17.6167 9.25307 18.0086C9.17074 18.3478 9.12793 18.7035 9.12793 19.0657C9.12793 21.5487 11.1433 23.5641 13.6264 23.5641C16.1094 23.5641 18.1248 21.5487 18.1248 19.0657C18.1248 18.7002 18.082 18.3478 17.9997 18.0086C16.363 17.6167 15.0787 16.3291 14.6835 14.6957Z" fill="#FF27D6"/>
<path opacity="0.5" d="M19.0569 9.14014C18.6914 9.14014 18.339 9.18295 17.9998 9.26528C17.6046 10.8987 16.3203 12.183 14.6869 12.5782C14.6046 12.9174 14.5618 13.273 14.5618 13.6386C14.5618 14.0041 14.6046 14.3565 14.6869 14.6957C16.3236 15.0909 17.6079 16.3752 18.0031 18.0119C18.3423 18.0942 18.6947 18.137 19.0602 18.137C21.5433 18.137 23.5587 16.1216 23.5587 13.6386C23.5587 11.1555 21.54 9.14014 19.0569 9.14014Z" fill="#FF27D6"/>
<path d="M14.6836 12.578C16.317 12.1829 17.6046 10.8985 17.9965 9.26514C16.3664 9.66032 15.0788 10.9446 14.6836 12.578Z" fill="#999999"/>
<path d="M14.6836 14.6956C15.0788 16.3323 16.3631 17.6166 17.9998 18.0118C17.6046 16.3751 16.317 15.0907 14.6836 14.6956Z" fill="#999999"/>
<path opacity="0.5" d="M12.5662 14.6956C12.6485 14.3564 12.6914 14.0007 12.6914 13.6385C12.6914 13.2729 12.6485 12.9173 12.5662 12.5781C10.9361 12.1829 9.65177 10.8986 9.2566 9.26845C8.9174 9.18612 8.56174 9.14331 8.1962 9.14331C5.71316 9.14331 3.69775 11.1587 3.69775 13.6418C3.69775 16.1248 5.70658 18.1369 8.19291 18.1369C8.55845 18.1369 8.91411 18.0941 9.2533 18.0118C9.64848 16.3784 10.9328 15.0907 12.5662 14.6956Z" fill="#FF27D6"/>
<path d="M12.5628 12.5748C12.1676 10.9446 10.8833 9.66032 9.25317 9.26514C9.64835 10.8985 10.9327 12.1829 12.5628 12.5748Z" fill="#333333"/>
<path d="M12.5661 14.6956C10.9327 15.0907 9.64835 16.3751 9.25317 18.0085C10.8866 17.6166 12.1709 16.329 12.5661 14.6956Z" fill="#333333"/>
<path d="M12.5663 12.5781C10.9362 12.1862 9.6519 10.9018 9.26001 9.27173C10.8802 9.66691 12.1646 10.9479 12.5663 12.5781Z" fill="#FF27D6"/>
<path d="M9.24976 18.0116C9.64164 16.3815 10.926 15.0972 12.5561 14.7053C12.1642 16.3256 10.8799 17.6099 9.24976 18.0116Z" fill="#FF27D6"/>
<path d="M14.6836 14.6956C16.3137 15.0874 17.5981 16.3718 17.9899 18.0019C16.3697 17.61 15.0854 16.3257 14.6836 14.6956Z" fill="#FF27D6"/>
<path d="M17.9997 9.26196C17.6078 10.8921 16.3235 12.1764 14.6934 12.5683C15.0852 10.9481 16.3696 9.66702 17.9997 9.26196Z" fill="#FF27D6"/>
</g>
</g>
<defs>
<clipPath id="clip0_239_2789">
<rect width="26.5099" height="26.5099" fill="white" transform="translate(0.371582 0.383545)"/>
</clipPath>
<clipPath id="clip1_239_2789">
<rect width="26.5099" height="26.5099" fill="white" transform="translate(0.371582 0.383545)"/>
</clipPath>
</defs>
</svg>
