<svg width="29" height="30" viewBox="0 0 29 30" fill="none" xmlns="http://www.w3.org/2000/svg">
<path d="M14.6181 1.79395C7.55061 1.79395 1.82129 7.77236 1.82129 15.15C1.82129 22.5277 7.54952 28.5033 14.6181 28.5033C21.6868 28.5033 27.415 22.522 27.415 15.15C27.415 7.77806 21.6857 1.79395 14.6181 1.79395ZM20.8461 18.9459L16.922 23.0213C16.6678 23.2842 16.3242 23.4313 15.9663 23.4304C15.6084 23.4294 15.2654 23.2805 15.0126 23.0161L14.8762 22.8733L9.41801 17.2375V20.615C9.42162 20.8023 9.38937 20.9886 9.32315 21.1628C9.25693 21.337 9.15807 21.4957 9.03236 21.6295C8.90664 21.7633 8.75661 21.8697 8.59103 21.9423C8.42545 22.0148 8.24765 22.0522 8.06806 22.0522C7.88846 22.0522 7.71067 22.0148 7.54509 21.9423C7.37951 21.8697 7.22947 21.7633 7.10376 21.6295C6.97804 21.4957 6.87918 21.337 6.81296 21.1628C6.74674 20.9886 6.71449 20.8023 6.7181 20.615V9.66574C6.71449 9.47837 6.74674 9.29213 6.81296 9.11793C6.87918 8.94373 6.97804 8.78506 7.10376 8.65122C7.22947 8.51738 7.37951 8.41105 7.54509 8.33846C7.71067 8.26588 7.88846 8.22849 8.06806 8.22849C8.24765 8.22849 8.42545 8.26588 8.59103 8.33846C8.75661 8.41105 8.90664 8.51738 9.03236 8.65122C9.15807 8.78506 9.25693 8.94373 9.32315 9.11793C9.38937 9.29213 9.42162 9.47837 9.41801 9.66574V13.0341L14.8789 7.39836C14.9209 7.35453 15.0126 7.27483 15.0153 7.27198C15.2681 7.00766 15.6111 6.8587 15.969 6.85774C16.3269 6.85678 16.6706 7.0039 16.9247 7.26686L20.8461 11.3422C21.1 11.6058 21.2432 11.9638 21.2442 12.3375C21.2452 12.7112 21.1038 13.07 20.8513 13.3349C20.5987 13.5999 20.2556 13.7493 19.8975 13.7503C19.5394 13.7514 19.1955 13.6039 18.9416 13.3403L15.958 10.2407L11.2167 15.1364L15.9656 20.0395L18.9416 16.9478C19.1955 16.6842 19.5394 16.5368 19.8975 16.5378C20.2556 16.5388 20.5987 16.6882 20.8513 16.9532C21.1038 17.2182 21.2452 17.577 21.2442 17.9507C21.2432 18.3244 21.1 18.6824 20.8461 18.9459ZM17.3393 15.15C17.3387 15.4307 17.2583 15.7048 17.1084 15.9379C16.9585 16.1709 16.7458 16.3523 16.4971 16.4593C16.2485 16.5662 15.975 16.5938 15.7113 16.5387C15.4476 16.4835 15.2055 16.348 15.0155 16.1493C14.8255 15.9506 14.6963 15.6977 14.6441 15.4223C14.5918 15.147 14.619 14.8617 14.722 14.6025C14.8251 14.3433 14.9995 14.1218 15.2232 13.9659C15.4469 13.8101 15.7098 13.7269 15.9787 13.7269C16.1577 13.7269 16.3349 13.7637 16.5002 13.8353C16.6655 13.9068 16.8156 14.0117 16.942 14.1439C17.0684 14.2761 17.1685 14.433 17.2367 14.6057C17.3049 14.7783 17.3398 14.9633 17.3393 15.15Z" fill="#FF27D6"/>
</svg>
