<svg width="20" height="22" viewBox="0 0 20 22" fill="none" xmlns="http://www.w3.org/2000/svg">
<g clip-path="url(#clip0_238_1126)">
<path d="M10.0829 1.57751C5.01754 1.57751 0.911255 5.86233 0.911255 11.15C0.911255 16.4377 5.01675 20.7205 10.0829 20.7205C15.1491 20.7205 19.2546 16.4336 19.2546 11.15C19.2546 5.86641 15.1483 1.57751 10.0829 1.57751ZM14.5466 13.8706L11.7341 16.7914C11.552 16.9799 11.3057 17.0853 11.0492 17.0846C10.7926 17.084 10.5469 16.9772 10.3656 16.7878L10.2679 16.6853L6.35593 12.6461V15.0668C6.35852 15.2011 6.3354 15.3346 6.28794 15.4594C6.24048 15.5843 6.16963 15.698 6.07953 15.7939C5.98943 15.8899 5.88189 15.9661 5.76322 16.0181C5.64455 16.0701 5.51712 16.0969 5.3884 16.0969C5.25968 16.0969 5.13225 16.0701 5.01358 16.0181C4.89491 15.9661 4.78737 15.8899 4.69727 15.7939C4.60717 15.698 4.53632 15.5843 4.48886 15.4594C4.4414 15.3346 4.41828 15.2011 4.42087 15.0668V7.21934C4.41828 7.08505 4.4414 6.95157 4.48886 6.82672C4.53632 6.70186 4.60717 6.58814 4.69727 6.49222C4.78737 6.39629 4.89491 6.32009 5.01358 6.26806C5.13225 6.21604 5.25968 6.18924 5.3884 6.18924C5.51712 6.18924 5.64455 6.21604 5.76322 6.26806C5.88189 6.32009 5.98943 6.39629 6.07953 6.49222C6.16963 6.58814 6.24048 6.70186 6.28794 6.82672C6.3354 6.95157 6.35852 7.08505 6.35593 7.21934V9.63348L10.2698 5.59428C10.2999 5.56286 10.3656 5.50574 10.3676 5.5037C10.5488 5.31426 10.7946 5.2075 11.0511 5.20681C11.3076 5.20612 11.5539 5.31156 11.7361 5.50003L14.5466 8.4209C14.7286 8.60978 14.8312 8.86636 14.8319 9.1342C14.8326 9.40204 14.7313 9.6592 14.5503 9.8491C14.3693 10.039 14.1234 10.1461 13.8667 10.1468C13.6101 10.1476 13.3636 10.0419 13.1816 9.85298L11.0432 7.63142L7.64506 11.1402L11.0487 14.6543L13.1816 12.4385C13.3636 12.2496 13.6101 12.1439 13.8667 12.1446C14.1234 12.1453 14.3693 12.2524 14.5503 12.4424C14.7313 12.6323 14.8326 12.8894 14.8319 13.1573C14.8312 13.4251 14.7286 13.6817 14.5466 13.8706ZM12.0332 11.15C12.0328 11.3512 11.9752 11.5477 11.8678 11.7147C11.7603 11.8817 11.6079 12.0117 11.4296 12.0884C11.2514 12.165 11.0554 12.1848 10.8664 12.1453C10.6774 12.1057 10.5039 12.0086 10.3677 11.8662C10.2316 11.7238 10.1389 11.5425 10.1015 11.3452C10.0641 11.1479 10.0835 10.9434 10.1574 10.7576C10.2313 10.5718 10.3563 10.413 10.5166 10.3013C10.6769 10.1896 10.8653 10.13 11.0581 10.13C11.1864 10.13 11.3133 10.1564 11.4318 10.2077C11.5503 10.259 11.6579 10.3342 11.7485 10.4289C11.839 10.5237 11.9108 10.6361 11.9597 10.7599C12.0086 10.8836 12.0336 11.0162 12.0332 11.15Z" fill="white"/>
</g>
<defs>
<clipPath id="clip0_238_1126">
<rect width="19.55" height="20.4" fill="white" transform="translate(0.299805 0.950012)"/>
</clipPath>
</defs>
</svg>
