<svg width="21" height="22" viewBox="0 0 21 22" fill="none" xmlns="http://www.w3.org/2000/svg">
<path d="M10.725 1.57629C5.65957 1.57629 1.55328 5.86029 1.55328 11.1467C1.55328 16.4332 5.65957 20.7172 10.725 20.7172C15.7904 20.7172 19.8967 16.4332 19.8967 11.1467C19.8967 5.86029 15.7904 1.57629 10.725 1.57629ZM16.0997 15.1794C16.0215 16.0126 15.7587 16.7763 15.2625 17.4455C14.676 18.2382 13.894 18.7319 12.9947 19.0395C12.6032 19.1769 12.198 19.2676 11.7869 19.31C11.3342 19.3591 10.879 19.3787 10.4239 19.3688C9.28983 19.3272 8.18099 19.0082 7.18681 18.4373C6.73307 18.1879 6.31026 17.8815 5.92779 17.525C5.65018 17.2602 5.37218 16.9926 5.12155 16.7004C4.63178 16.1214 4.23249 15.4655 3.93838 14.7567C3.70424 14.1999 3.53364 13.6162 3.43008 13.0178C3.39098 12.7902 3.373 12.5576 3.34954 12.3267C3.33009 12.1736 3.31861 12.0196 3.31513 11.8652C3.31513 11.6384 3.3296 11.4115 3.34328 11.1851C3.35306 11.0182 3.37026 10.8514 3.38707 10.6849C3.43403 10.25 3.52043 9.82079 3.64513 9.40296C3.87586 8.60102 4.23261 7.84464 4.70083 7.16467C5.00758 6.71709 5.35868 6.3045 5.74832 5.93373C6.31539 5.3942 6.95936 4.9499 7.65718 4.61671C8.18981 4.35503 8.75353 4.1687 9.3334 4.06265C9.6552 4.00675 9.98129 3.97656 10.3058 3.94025C10.6784 3.89945 11.0487 3.92474 11.4229 3.95697C12.0606 4.01205 12.6741 4.16791 13.2864 4.38905C12.7828 5.0447 12.183 5.58041 11.5038 6.03737C11.4647 5.70444 11.3865 5.39069 11.2024 5.10549C11.1883 5.11773 11.1766 5.12345 11.1723 5.13283C11.0159 5.48616 10.7449 5.73055 10.4481 5.94883C9.97581 6.29277 9.45383 6.53431 8.91542 6.73872C8.64368 6.84153 8.40986 6.99331 8.24486 7.24382C8.07986 7.49433 8.04584 7.83338 8.21983 8.07451C8.33713 8.23404 8.49823 8.29891 8.67457 8.34093C8.42198 8.40213 8.27966 8.39969 8.04662 8.23404C7.79403 8.50821 7.5262 8.76648 7.18642 8.91948C7.06605 8.97463 6.93826 9.01013 6.80754 9.02474C6.53032 9.05167 6.44 8.82645 6.46151 8.61348C6.47433 8.53228 6.49156 8.45191 6.51312 8.37276C6.52027 8.34619 6.52134 8.31824 6.51625 8.29116C6.12055 8.56288 5.78781 8.89704 5.54969 9.32748C5.17707 10.0015 5.2279 10.7077 5.40111 11.4421C5.52897 11.334 5.64002 11.2275 5.76279 11.1394C5.98488 10.9795 6.20814 10.8187 6.44235 10.6792C6.94423 10.3863 7.49101 10.1866 8.05835 10.0888C8.31845 10.0447 8.58092 10.0174 8.84426 10.0072C9.09975 9.99129 9.35592 9.99129 9.6114 10.0072C9.89881 10.0285 10.185 10.065 10.4689 10.1165C10.739 10.1647 11.0045 10.2389 11.2724 10.3006C11.2867 10.3006 11.301 10.299 11.315 10.2957C11.0045 9.77057 10.5467 9.43886 10.0399 9.16917C10.0399 9.1602 10.0431 9.15122 10.0442 9.14224C10.2628 9.14224 10.481 9.13939 10.6992 9.14224C10.8282 9.14469 10.9568 9.15897 11.0859 9.16754C11.4476 9.1947 11.8057 9.26143 12.1541 9.36664C12.7267 9.53384 13.27 9.79555 13.7634 10.1418C14.1297 10.4005 14.4633 10.7062 14.7566 11.0517C15.3763 11.7725 15.806 12.6489 16.0035 13.5952C16.0556 13.8572 16.0883 14.1231 16.1012 14.3903C16.1214 14.653 16.1209 14.9169 16.0997 15.1794ZM10.691 6.68323C10.4814 7.65549 9.81824 8.07859 8.88062 8.02759C8.88223 7.96095 8.88864 7.89453 8.89978 7.82889C8.94983 7.62489 9.09528 7.49964 9.26576 7.41477C9.49293 7.30176 9.7287 7.20629 9.96213 7.10633C10.2194 6.99657 10.4739 6.88233 10.691 6.68323ZM6.61947 9.47109C6.61243 9.59349 6.58545 9.711 6.56708 9.83095L6.53267 9.82646C6.51038 9.71589 6.43726 9.66571 6.33717 9.68937C6.15183 9.73017 6.02711 9.86277 5.89573 10.0215C5.92076 9.84683 5.98566 9.68101 6.08497 9.53801C6.15823 9.42237 6.26769 9.33686 6.39465 9.29606C6.52172 9.2573 6.62807 9.33278 6.61947 9.47109ZM16.4363 10.019C15.5304 8.97945 14.3945 8.3952 13.071 8.18304C14.0227 8.19895 14.9188 8.43926 15.7915 8.90397C15.7376 8.80891 15.6973 8.74077 15.6582 8.66937C15.6178 8.59939 15.5815 8.5269 15.5495 8.45232C16.2561 8.79137 16.9004 9.23078 17.5202 9.72691C17.5013 9.69434 17.4804 9.66312 17.4576 9.63348C17.1641 9.29297 16.8448 8.97766 16.5028 8.69059C15.7495 8.05665 14.8886 7.57611 13.9652 7.27401C13.5727 7.14018 13.1683 7.04764 12.7582 6.9978C12.6745 6.98882 12.5912 6.96965 12.5075 6.96475C12.4738 6.96788 12.4419 6.98217 12.4164 7.00555C11.9441 7.38621 11.4163 7.65835 10.8653 7.89091C10.8575 7.89458 10.847 7.89091 10.856 7.89091C10.9752 7.71792 11.1101 7.54452 11.2196 7.35521C11.2978 7.22057 11.3392 7.06349 11.4018 6.91864C11.4166 6.88358 11.4424 6.8548 11.4749 6.83705C11.8695 6.6676 12.2392 6.44067 12.5728 6.16303C12.891 5.89095 13.1757 5.57892 13.4205 5.23401L13.5378 5.07081L13.019 5.23401C13.5638 4.5608 13.9628 3.77263 14.1884 2.92351C14.1791 3.52001 14.1251 4.10671 13.9538 4.67995C15.8365 5.68322 17.135 7.21812 17.7923 9.32095C18.2764 10.8713 18.1989 12.547 17.8642 13.6833C17.8048 12.2891 17.3434 11.0594 16.4367 10.019H16.4363Z" fill="white"/>
</svg>
