<svg width="28" height="30" viewBox="0 0 28 30" fill="none" xmlns="http://www.w3.org/2000/svg">
<path d="M14.1223 1.79224C7.05476 1.79224 1.32544 7.76952 1.32544 15.1455C1.32544 22.5214 7.05476 28.4987 14.1223 28.4987C21.1898 28.4987 26.9192 22.5214 26.9192 15.1455C26.9192 7.76952 21.1898 1.79224 14.1223 1.79224ZM21.6214 20.7721C21.5123 21.9345 21.1457 23.0002 20.4534 23.9338C19.635 25.0399 18.5439 25.7287 17.2892 26.1579C16.7429 26.3496 16.1776 26.4762 15.604 26.5353C14.9723 26.6038 14.3372 26.6312 13.7022 26.6173C12.1199 26.5594 10.5728 26.1142 9.18566 25.3177C8.55257 24.9697 7.96264 24.5422 7.429 24.0448C7.04167 23.6753 6.65378 23.3019 6.30409 22.8943C5.62073 22.0864 5.06363 21.1712 4.65327 20.1823C4.32658 19.4054 4.08855 18.5911 3.94406 17.7561C3.8895 17.4385 3.86441 17.114 3.83168 16.7918C3.80455 16.5782 3.78852 16.3633 3.78367 16.148C3.78367 15.8314 3.80385 15.5149 3.82295 15.199C3.83659 14.9662 3.86059 14.7333 3.88405 14.5011C3.94956 13.8943 4.07012 13.2954 4.24411 12.7124C4.56603 11.5935 5.06379 10.5382 5.71708 9.58946C6.14507 8.96497 6.63495 8.3893 7.1786 7.87198C7.96981 7.1192 8.86831 6.49928 9.84195 6.0344C10.5851 5.66929 11.3716 5.40931 12.1807 5.26134C12.6297 5.18335 13.0847 5.14122 13.5375 5.09056C14.0574 5.03363 14.574 5.06892 15.0961 5.1139C15.9859 5.19075 16.8418 5.40821 17.6962 5.71675C16.9935 6.63156 16.1566 7.379 15.209 8.01658C15.1545 7.55206 15.0454 7.11429 14.7884 6.71638C14.7688 6.73346 14.7524 6.74143 14.7464 6.75452C14.5282 7.2475 14.1501 7.58849 13.7361 7.89305C13.077 8.37294 12.3487 8.70994 11.5975 8.99514C11.2184 9.1386 10.8921 9.35037 10.6619 9.69989C10.4317 10.0494 10.3842 10.5225 10.627 10.8589C10.7907 11.0815 11.0154 11.172 11.2615 11.2306C10.909 11.316 10.7105 11.3126 10.3853 11.0815C10.0329 11.464 9.65919 11.8244 9.18511 12.0379C9.01716 12.1148 8.83887 12.1643 8.65648 12.1847C8.26969 12.2223 8.14367 11.9081 8.17367 11.6109C8.19157 11.4976 8.21561 11.3855 8.24568 11.275C8.25566 11.238 8.25716 11.199 8.25005 11.1612C7.69796 11.5403 7.2337 12.0066 6.90146 12.6071C6.38156 13.5476 6.45248 14.533 6.69415 15.5576C6.87255 15.4068 7.02748 15.2582 7.19878 15.1352C7.50865 14.9121 7.82016 14.6878 8.14694 14.4931C8.84719 14.0845 9.61009 13.8058 10.4017 13.6694C10.7646 13.6078 11.1308 13.5698 11.4982 13.5555C11.8547 13.5333 12.2121 13.5333 12.5686 13.5555C12.9696 13.5853 13.3689 13.6362 13.765 13.7081C14.1419 13.7753 14.5124 13.8789 14.8861 13.9648C14.9061 13.9649 14.926 13.9626 14.9455 13.958C14.5124 13.2254 13.8735 12.7625 13.1665 12.3863C13.1665 12.3737 13.1709 12.3612 13.1725 12.3487C13.4775 12.3487 13.7819 12.3447 14.0863 12.3487C14.2663 12.3521 14.4458 12.372 14.6258 12.384C15.1306 12.4219 15.6302 12.515 16.1163 12.6618C16.9152 12.8951 17.6733 13.2602 18.3617 13.7434C18.8727 14.1043 19.3383 14.5308 19.7474 15.0128C20.6121 16.0185 21.2116 17.2414 21.4872 18.5616C21.5599 18.9273 21.6055 19.2982 21.6236 19.6711C21.6517 20.0376 21.651 20.4058 21.6214 20.7721ZM14.0748 8.91772C13.7824 10.2743 12.8572 10.8646 11.549 10.7935C11.5512 10.7005 11.5601 10.6078 11.5757 10.5162C11.6455 10.2316 11.8485 10.0568 12.0863 9.93842C12.4033 9.78073 12.7323 9.64752 13.0579 9.50805C13.4169 9.35492 13.7721 9.19553 14.0748 8.91772ZM8.39407 12.8075C8.38425 12.9783 8.34661 13.1422 8.32097 13.3096L8.27296 13.3033C8.24187 13.1491 8.13985 13.0791 8.00019 13.1121C7.7416 13.169 7.56757 13.354 7.38427 13.5754C7.41919 13.3318 7.50975 13.1004 7.64831 12.9009C7.75053 12.7395 7.90324 12.6202 8.08038 12.5633C8.25769 12.5092 8.40607 12.6145 8.39407 12.8075ZM22.0911 13.572C20.8271 12.1215 19.2422 11.3064 17.3956 11.0103C18.7234 11.0325 19.9738 11.3678 21.1915 12.0162C21.1162 11.8836 21.06 11.7885 21.0054 11.6889C20.9491 11.5913 20.8984 11.4901 20.8538 11.3861C21.8396 11.8591 22.7386 12.4722 23.6033 13.1644C23.5771 13.119 23.5479 13.0754 23.516 13.0341C23.1065 12.559 22.661 12.119 22.1838 11.7185C21.1327 10.834 19.9317 10.1635 18.6432 9.74202C18.0956 9.55528 17.5314 9.42618 16.9591 9.35663C16.8424 9.3441 16.7262 9.31735 16.6094 9.31052C16.5623 9.31489 16.5178 9.33483 16.4823 9.36744C15.8233 9.89857 15.0868 10.2783 14.3182 10.6027C14.3072 10.6079 14.2925 10.6027 14.3051 10.6027C14.4714 10.3614 14.6597 10.1194 14.8124 9.8553C14.9215 9.66745 14.9794 9.44828 15.0666 9.24619C15.0873 9.19726 15.1233 9.15712 15.1687 9.13234C15.7193 8.89591 16.235 8.57929 16.7005 8.19191C17.1444 7.81229 17.5417 7.37692 17.8833 6.8957L18.047 6.66799L17.323 6.8957C18.0832 5.95639 18.6399 4.85669 18.9547 3.67195C18.9416 4.50421 18.8664 5.32282 18.6274 6.12263C21.2542 7.52246 23.066 9.66403 23.983 12.598C24.6584 14.7612 24.5504 17.0992 24.0834 18.6846C24.0005 16.7394 23.3567 15.0237 22.0916 13.572H22.0911Z" fill="#FF27D6"/>
</svg>
